<?xml version="1.0" encoding="utf-8"?>
<!-- Generator: Adobe Illustrator 27.0.1, SVG Export Plug-In . SVG Version: 6.00 Build 0)  -->
<svg version="1.1" id="Layer_1" xmlns="http://www.w3.org/2000/svg" xmlns:xlink="http://www.w3.org/1999/xlink" x="0px" y="0px"
	 viewBox="0 0 558.8 258" style="enable-background:new 0 0 558.8 258;" xml:space="preserve">
<style type="text/css">
	.st0{fill:#475569;}
</style>
<path class="st0" d="M553.4,78.9L436,76.2H293c0.2-2-0.1-12.3-1.1-37C290.8,11.4,279.4,0,279.4,0S268,11.4,266.8,39.3
	c-1,24.7-1.3,34.9-1.1,37h-143L5.3,78.9c0,0-5.3,0.8-5.3,5v9.9l104.7,8.8l90,5c0,0,66.1,3.8,69.8,3.8c2.7,0,3.5,1.8,3.8,4.1l0.1,2.4
	c0,0.1,0,0.1,0,0.2l4.4,114l-35.8,5.1c0,0-5.7,1.9-5.7,6.1v6.9l41.5,4.2l3.3-4.8l2.2,6.6l1,2l1-2l2.2-6.6l3.3,4.8l41.5-4.2v-6.9
	c0-4.2-5.7-6.1-5.7-6.1l-35.7-5.1l4.4-114c0-0.1,0-0.1,0-0.2l0.1-2.4c0.2-2.3,1.1-4.1,3.8-4.1c3.6,0,69.8-3.8,69.8-3.8l90-5
	l104.7-8.8v-9.9C558.8,79.7,553.4,78.9,553.4,78.9L553.4,78.9z M286.5,67.4c0,0-1,5.3-7.1,5.5c-6-0.3-7.1-5.5-7.1-5.5
	s-0.7-16.9,0.7-30.7c0.9-9,1.9-14.9,6.4-15.3c4.5,0.4,5.5,6.3,6.4,15.3C287.2,50.5,286.5,67.4,286.5,67.4z"/>
</svg>
