<?xml version="1.0" encoding="utf-8"?>
<!-- Generator: Adobe Illustrator 27.0.1, SVG Export Plug-In . SVG Version: 6.00 Build 0)  -->
<svg version="1.1" id="Layer_1" xmlns="http://www.w3.org/2000/svg" xmlns:xlink="http://www.w3.org/1999/xlink" x="0px" y="0px"
	 viewBox="0 0 384 512" style="enable-background:new 0 0 384 512;" xml:space="preserve">
<style type="text/css">
	.st0{fill:#2E3A49;}
	.st1{font-family:'BebasNeueBold';}
	.st2{font-size:277px;}
	.st3{letter-spacing:-6;}
</style>
<path class="st0" d="M0,64C0,28.6,28.6,0,64,0h165.5c17,0,33.2,6.7,45.2,18.8l90.6,90.6c12,12,18.7,28.2,18.7,45.2V448
	c0,35.3-28.7,64-64,64H64c-35.3,0-64-28.7-64-64V64z M336,448V160h-80c-17.7,0-32-14.3-32-32V48H64c-8.8,0-16,7.2-16,16v384
	c0,8.8,7.2,16,16,16h256C328.8,464,336,456.8,336,448z"/>
<text transform="matrix(1 0 0 1 61 405)" class="st0 st1 st2 st3">IGC</text>
</svg>
