<?xml version="1.0" encoding="utf-8"?>
<!-- Generator: Adobe Illustrator 27.0.1, SVG Export Plug-In . SVG Version: 6.00 Build 0)  -->
<svg version="1.1" id="Layer_1" xmlns="http://www.w3.org/2000/svg" xmlns:xlink="http://www.w3.org/1999/xlink" x="0px" y="0px"
	 viewBox="0 0 384 512" style="enable-background:new 0 0 384 512;" xml:space="preserve">
<style type="text/css">
	.st0{fill:#2E3A49;}
	.st1{enable-background:new    ;}
</style>
<path class="st0" d="M0,64C0,28.6,28.6,0,64,0h165.5c17,0,33.2,6.7,45.2,18.8l90.6,90.6c12,12,18.7,28.2,18.7,45.2V448
	c0,35.3-28.7,64-64,64H64c-35.3,0-64-28.7-64-64V64z M336,448V160h-80c-17.7,0-32-14.3-32-32V48H64c-8.8,0-16,7.2-16,16v384
	c0,8.8,7.2,16,16,16h256C328.8,464,336,456.8,336,448z"/>
<g class="st1">
	<path class="st0" d="M71.8,223.5h26.7v170H71.8V223.5z"/>
	<path class="st0" d="M169.4,344.2l18.2-120.7h37.2v170h-25.3V271.6l-18.5,121.9h-25.3l-19.9-120.2v120.2h-23.3v-170h37.2
		L169.4,344.2z"/>
	<path class="st0" d="M279.2,298.8h37.4v53.9c0,27.2-13.6,42.7-39.8,42.7s-39.8-15.5-39.8-42.7v-88.4c0-27.2,13.6-42.7,39.8-42.7
		s39.8,15.5,39.8,42.7v16.5h-25.3v-18.2c0-12.1-5.3-16.8-13.8-16.8s-13.8,4.6-13.8,16.8v91.8c0,12.1,5.3,16.5,13.8,16.5
		s13.8-4.4,13.8-16.5v-31.3h-12.1V298.8z"/>
</g>
</svg>
